<?xml version="1.0" encoding="utf-8"?>
<!DOCTYPE svg PUBLIC "-//W3C//DTD SVG 1.0//EN" "http://www.w3.org/TR/2001/REC-SVG-20010904/DTD/svg10.dtd">
<svg version="1.0" xmlns="http://www.w3.org/2000/svg" width="3456px" height="4736px" viewBox="0 0 3456 4736" preserveAspectRatio="xMidYMid meet">
 <g fill="#ffff">
  <path d="M1004 4165.20 c-35.60 -2.40 -78.80 -10.40 -118.80 -22 l-40.80 -11.60 -8.80 8.80 c-8.40 8.40 -10.80 8.80 -56.40 6 -28 -1.60 -54 -5.20 -63.60 -9.20 -23.20 -9.20 -27.60 -20.80 -27.60 -70.80 l0 -42 -12 -6.40 c-6.40 -3.20 -12.80 -10 -14 -15.20 -5.20 -22.40 -14 -240.80 -14 -348.80 0 -156.40 2.80 -185.60 36.80 -390 9.60 -55.60 10.80 -144 6.40 -402 l-2.40 -132 -20.80 -54 c-30.80 -80 -36 -103.60 -36 -168 0 -30 2 -64.80 4.40 -77.20 3.20 -19.20 3.20 -24 -2 -29.20 -10.40 -10 -7.60 -33.60 10 -82 26.80 -74.80 32.80 -110.80 32.80 -189.60 0 -93.60 -13.60 -205.20 -45.20 -370 -30 -157.20 -15.20 -284.40 45.60 -388 9.60 -16.40 32 -50 50 -74 33.20 -44.80 41.60 -63.20 46.80 -102.80 2.80 -19.20 1.20 -22.80 -28 -82.80 -17.60 -36.40 -34 -75.60 -38.40 -94 -10.40 -41.60 -14 -99.20 -8.80 -145.60 5.20 -45.20 16 -66.80 38.40 -78.80 10.80 -5.60 17.60 -12.80 22.40 -24.40 9.20 -21.20 37.60 -45.60 64.40 -55.60 18.40 -6.80 31.60 -8 91.60 -8 64.40 0 75.20 1.20 131.60 13.20 46 10 66.80 12.80 82 11.20 11.20 -1.60 29.60 -3.60 41.20 -4.80 l20.80 -2.40 4.80 17.60 c7.20 27.60 2.40 75.60 -10 96.80 -5.60 9.60 -14.80 20.80 -20 25.20 -10 7.20 -10 7.20 -4.40 31.20 3.20 13.20 6 30 6 37.60 0 8.40 4 18.40 11.20 28 6.40 8 21.20 33.20 33.20 55.60 13.20 25.60 34.40 57.20 55.20 82 80.80 98 122 158.80 166 246.80 36 72.40 50.40 116.40 50.40 155.60 0 46.40 -17.20 68 -62 77.60 -44 10 -104.80 14.80 -182 14.80 l-71.20 0 5.60 19.20 c15.20 50 28.40 137.20 35.60 240.40 l2.80 37.20 30 18.80 c16.40 10 60.80 40 98.40 66 38 26 88.40 60 112 75.20 42.40 27.20 103.60 59.20 113.20 59.20 2.40 0 13.20 -4 24 -8.80 12.40 -5.60 32 -10 53.60 -12 18.80 -1.60 44.80 -4 58.40 -5.20 18.40 -2.40 32 -0.80 56.80 5.60 l32.80 8.40 25.20 -12.40 c29.20 -14.80 106 -65.20 170.80 -111.60 25.20 -18.40 67.60 -48.40 94 -67.20 26.40 -18.40 52.80 -38.40 58.80 -44 12.80 -11.60 25.60 -40 107.20 -239.20 77.60 -188.40 94.80 -219.60 152.80 -280 l27.60 -28.40 -4.40 -19.60 c-8 -36.40 -10 -37.60 -58.40 -37.60 -44.80 0 -61.60 -4.80 -69.60 -20 -3.60 -6.80 -12.40 -51.60 -22 -110.40 -2 -10.40 -4.40 -13.20 -14.80 -15.20 -34 -6.80 -36 -30.80 -7.20 -88.40 19.60 -39.60 20 -40.80 22 -86 1.20 -25.20 3.60 -52 5.20 -59.60 2.80 -12 1.60 -15.60 -8.40 -26 -21.20 -22.40 -28.40 -44.40 -28.40 -84.40 -0.40 -46.80 4 -55.20 26.80 -53.20 9.20 1.20 25.20 4.40 35.60 7.20 18 5.20 22.80 4.80 76 -7.20 84.80 -18.80 111.60 -22 163.20 -19.60 75.60 3.60 116.40 22 133.60 59.20 6.80 14 13.60 22.40 22.80 26.80 31.20 15.60 41.20 50.40 40.80 140.80 0 78.40 -6.40 102.80 -47.60 187.20 l-30.40 62.40 4.80 24.40 c7.60 39.20 16.80 54.40 64 106.40 77.60 85.20 107.60 131.60 123.60 192.40 10.80 40 14.40 61.20 30.40 185.20 7.60 59.60 18.40 142.40 24 184 13.20 98 16.80 169.60 10 198.40 -17.20 75.60 -87.20 290.80 -108 331.60 -6.40 12.80 -6.80 22.40 -5.20 88.40 2.80 87.20 -1.20 112.40 -29.20 180.80 -28 68 -30.80 83.20 -27.60 148.80 1.60 34.80 0 101.20 -3.60 176 -8.80 165.60 -6 206 24.80 386 17.60 100.80 22 162.40 21.60 298 -0.40 112 -9.60 320.80 -14.80 334.80 -1.20 3.20 -6.40 8 -11.60 10.40 -7.60 3.20 -9.60 8.40 -11.60 29.20 -1.60 13.60 -2.80 34 -2.80 45.20 0 41.60 -14.80 52 -78 56.40 -47.20 3.20 -64.80 0.80 -68 -9.60 -2 -6.80 -4.40 -6.80 -38 4 -62.40 19.20 -106.80 24.80 -188.80 22.40 -82 -2 -108.40 -7.60 -128 -26.80 -9.60 -9.60 -11.20 -14.40 -11.20 -32.80 0 -23.60 6 -38.40 18 -44.40 4.40 -2.40 10.80 -5.60 14 -7.60 3.20 -2 11.60 -6 18 -9.20 l12 -5.60 -18 -0.40 c-10 0 -30.40 -2 -46 -4 -60.80 -9.20 -78 -20.40 -78 -52.40 0 -10.40 1.60 -23.60 3.60 -28.80 4.40 -11.20 28.80 -25.20 51.20 -29.20 38.80 -6.80 101.60 -25.60 123.60 -36.80 13.60 -6.80 29.20 -18 35.20 -24.80 12.80 -15.60 12.80 -21.60 4.40 -186 -10.80 -210.80 -18.80 -281.20 -48 -430 -13.60 -69.60 -48 -306.40 -59.60 -414 -10.80 -94.40 -14.40 -160.40 -14.40 -251.60 l0 -87.60 -14 -15.20 -14 -15.60 0 -192 c0 -105.60 -0.80 -192 -1.60 -192 -1.20 0 -12.40 6 -25.20 13.60 -26 15.20 -95.60 48.80 -129.20 62.40 -12 4.80 -27.20 11.20 -34 14 -6.40 2.80 -28 10.80 -48 18 -19.60 7.60 -37.60 14.80 -39.60 16.80 -2.40 1.60 -6.80 3.20 -10 3.20 -3.20 0 -13.20 3.20 -22 7.60 -9.20 4 -19.20 8.80 -22.40 10 -9.20 4 -20.40 11.20 -38.80 24.40 -15.20 11.20 -16.80 13.60 -18 32 -1.20 19.20 -1.60 20 -13.60 21.20 -10.40 1.20 -13.20 3.60 -16.40 14 -2.40 9.60 -6.80 14 -16.80 17.20 -7.20 2.40 -15.20 8.40 -17.60 14 -3.60 6.80 -8.80 10 -18.80 10.80 -8 0.80 -16 4.80 -19.20 9.20 -4 5.60 -10 7.60 -24 7.60 -10.40 0 -22.40 2.80 -26.40 6 -11.20 8.40 -31.60 7.60 -43.60 -2 -5.60 -4.40 -15.60 -8 -22.40 -8 -9.60 0 -13.60 -2.40 -17.20 -10 -3.20 -7.60 -7.60 -10 -17.20 -10 -13.60 0 -24.40 -8.80 -26.80 -22 -0.80 -5.20 -5.60 -8.80 -14.40 -10.40 -18.40 -3.60 -22 -8.40 -24.80 -30.80 -2 -18.80 -2 -18.80 -31.20 -34 -16 -8.40 -79.60 -34 -142 -56.80 -62 -22.40 -117.60 -43.20 -123.60 -45.60 l-11.20 -4.40 -0.40 143.20 c-0.40 162.40 -1.60 180 -16.40 196 l-10.40 10.80 -2 126 c-2.40 130.80 -4.40 153.60 -30.80 350 -20 150.40 -27.60 199.20 -46 294 -26.80 137.60 -36.80 241.20 -45.60 478.80 -3.60 98.40 -3.20 107.20 9.20 120.80 14 15.60 60.40 35.20 110 46.80 92.80 21.20 100.40 26 100.40 65.60 0 21.20 -1.20 24.40 -12 33.60 -15.20 12.40 -30.80 16.80 -82 22.80 -22 2.40 -40.40 4.80 -40.80 5.20 -0.80 0.40 8 5.20 18.80 10 28 12.80 36 24 36 52.80 0 42 -22.40 55.20 -106.40 63.60 -38.80 3.60 -52.80 4 -89.60 1.20z m224 -2802.80 c0 -0.80 -9.60 -25.60 -21.60 -55.20 -22.40 -56 -44 -101.20 -49.60 -104.80 -2 -1.20 -4.80 7.20 -6 18.80 -2 16.40 -5.20 23.20 -14.80 32 -12 10.40 -13.20 10.80 -60.40 10.80 l-48 0 -5.60 13.20 c-2.80 6.80 -6.40 19.20 -8 27.20 l-2.80 14.40 83.60 18.40 c116 26.40 114 26 124.40 26.40 4.80 0.40 8.80 -0.40 8.80 -1.20z"/>
 </g>
</svg>